/* XPM */
static char * design_report_xpm[] = {
"16 16 5 1",
" 	c None",
".	c #000000",
"+	c #FFFFFF",
"@	c #C2C2C2",
"#	c #EAE212",
"                ",
"              . ",
" ..........  .. ",
" .+++++++@. .#. ",
" .+.....+@..##. ",
" .+++++++@.#.#. ",
" .+...+.+.#..#. ",
" .++++++.#. .#. ",
" .+.....#.. .#. ",
" .++++.#.@. .#. ",
" .+.+.#......#. ",
" .++.#########. ",
" .+............ ",
" .@@@@@@@@.     ",
" ..........     ",
"                "};
