/* XPM */
static char * new_form_xpm[] = {
"16 16 5 1",
" 	c None",
".	c #000000",
"+	c #FFFFFF",
"@	c #C2C2C2",
"#	c #001191",
"                ",
"                ",
"     .......... ",
"     .+++++++@. ",
" .   .+.....+@. ",
" ..  .+++++++@. ",
" ... .+#####+@. ",
" ..  .++#+#++@. ",
" .   .+#####+@. ",
"     .++#+#++@. ",
"     .+#####+@. ",
"     .++#+#++@. ",
"     .+#####+@. ",
"     .@@@@@@@@. ",
"     .......... ",
"                "};
