/* XPM */
static char * open_generic_xpm[] = {
"16 16 6 1",
" 	c None",
".	c #777307",
"+	c #8A8508",
"@	c #C1BB11",
"#	c #ABA50C",
"$	c #9F9A06",
"                ",
"                ",
"  ....          ",
"  .+++.....     ",
"  .@#@#@#@.     ",
"  .#@#@#@#.     ",
"  .@#@#@........",
"  .#@#@.$+$+$+$.",
"  .@#@.$+$+$+$. ",
"  .#@.$+$+$+$.  ",
"  .@.$+$+$+$.   ",
"  ..$+$+$+$.    ",
"  .........     ",
"                ",
"                ",
"                "};
