/* XPM */
static char * remove_table_xpm[] = {
"16 16 24 1",
" 	c None",
".	c #000000",
"+	c #12186B",
"@	c #9A000B",
"#	c #7A0003",
"$	c #FFFFFF",
"%	c #575757",
"&	c #9D0B16",
"*	c #9B0611",
"=	c #64383B",
"-	c #97000B",
";	c #74272D",
">	c #970008",
",	c #9A010C",
"'	c #98000B",
")	c #C16970",
"!	c #980009",
"~	c #7D1C22",
"{	c #5D0000",
"]	c #792027",
"^	c #9A020D",
"/	c #91050F",
"(	c #8B0D16",
"_	c #DBACB0",
"                ",
"    ........... ",
"    .+++++++++. ",
"@@  ....##..... ",
" @@ .$%&*=$$%$. ",
"  @@.%--;%%%%%. ",
"  @@>,')$%$$%$. ",
"   @!'~%%%%%%%. ",
"   @!@-$$%$$%$. ",
"  @@{~'-%%%%%%. ",
" @@@.$]^&%$$%$. ",
"@@  .%%;/(%%%%. ",
"    .$%$_=$$%$. ",
"    ........... ",
"                ",
"                "};
