/* XPM */
static char * design_table_xpm[] = {
"16 16 6 1",
" 	c None",
".	c #000000",
"+	c #050074",
"@	c #EAE212",
"#	c #FFFFFF",
"$	c #797979",
"                ",
"               .",
" ...........  ..",
" .+++++++++. .@.",
" ............@@.",
" .#$##$##$#.@.@.",
" .$$$$$$$$.@..@.",
" .#$##$##.@. .@.",
" .$$$$$$.@.. .@.",
" .#$##$.@.#. .@.",
" .$$$$.@......@.",
" .#$#.@@@@@@@@@.",
" .$$............",
" .#$##$##$#.    ",
" ...........    ",
"                "};
