/* XPM */
static char * design_form_xpm[] = {
"16 16 6 1",
" 	c None",
".	c #000000",
"+	c #FFFFFF",
"@	c #C2C2C2",
"#	c #EAE212",
"$	c #001191",
"                ",
"              . ",
" ..........  .. ",
" .+++++++@. .#. ",
" .+.....+@..##. ",
" .+++++++@.#.#. ",
" .+$$$$$+.#..#. ",
" .++$+$+.#. .#. ",
" .+$$$$.#.. .#. ",
" .++$+.#.@. .#. ",
" .+$$.#......#. ",
" .++.#########. ",
" .+............ ",
" .@@@@@@@@.     ",
" ..........     ",
"                "};
