/* XPM */
static char * new_report_xpm[] = {
"16 16 4 1",
" 	c None",
".	c #000000",
"+	c #FFFFFF",
"@	c #C2C2C2",
"                ",
"                ",
"     .......... ",
"     .+++++++@. ",
" .   .+.....+@. ",
" ..  .+++++++@. ",
" ... .+...+.+@. ",
" ..  .+++++++@. ",
" .   .+....++@. ",
"     .+++++++@. ",
"     .+.+...+@. ",
"     .+++++++@. ",
"     .+..+..+@. ",
"     .@@@@@@@@. ",
"     .......... ",
"                "};
