/* XPM */
static char * new_table_xpm[] = {
"16 16 5 1",
" 	c None",
".	c #000000",
"+	c #000091",
"@	c #FFFFFF",
"#	c #777575",
"                ",
"                ",
"     .......... ",
"     .++++++++. ",
" .   .......... ",
" ..  .@@#@@#@@. ",
" ... .########. ",
" ..  .@@#@@#@@. ",
" .   .########. ",
"     .@@#@@#@@. ",
"     .########. ",
"     .@@#@@#@@. ",
"     .......... ",
"                ",
"                ",
"                "};
