/* XPM */
static char * new_generic_xpm24[] = {
"24 24 4 1",
" 	c None",
".	c #000000",
"+	c #E5E5E5",
"@	c #858585",
"                        ",
"    ..............      ",
"    .+++++++++++.+.     ",
"    .+++++++++++.@+.    ",
"    .+++++++++++....    ",
"    .+++++++++++++@.    ",
"    .+++++++++++++@.    ",
"    .+++++++++++++@.    ",
"    .+++++++++++++@.    ",
"    .+++++++++++++@.    ",
"    .+++++++++++++@.    ",
"    .+++++++++++++@.    ",
"    .+++++++++++++@.    ",
"    .+++++++++++++@.    ",
"    .+++++++++++++@.    ",
"    .+++++++++++++@.    ",
"    .+++++++++++++@.    ",
"    .+++++++++++++@.    ",
"    .+++++++++++++@.    ",
"    .+++++++++++++@.    ",
"    .@@@@@@@@@@@@@@.    ",
"    ................    ",
"                        ",
"                        "};
