/* XPM */
static char * open_generic_xpm24[] = {
"24 24 6 1",
" 	c None",
".	c #000000",
"+	c #52530E",
"@	c #737414",
"#	c #9B9D1A",
"$	c #868715",
"                        ",
"                        ",
"                        ",
"                        ",
"   ......               ",
"   .+@+@+.              ",
"   .@+@+@+.             ",
"   ...............      ",
"   .#$#$#$#$#$#$#.      ",
"   .$#$#$#$#$#$#$.      ",
"   .#$#$#.............  ",
"   .$#$#$.@+@+@+@+@+@.  ",
"   .#$#$..+@+@+@+@+@..  ",
"   .$#$#.+@+@+@+@+@+.   ",
"   .#$#..@+@+@+@+@+..   ",
"   .$#$.@+@+@+@+@+@.    ",
"   .#$..+@+@+@+@+@..    ",
"   .$#.+@+@+@+@+@+.     ",
"   .#..@+@+@+@+@+..     ",
"   .$.@+@+@+@+@+@.      ",
"   ...+@+@+@+@+@+.      ",
"   ...............      ",
"                        ",
"                        "};
