/* XPM */
static char *primary_key_xpm[] = {
"16 16 4 1",
" 	c None",
".	c #5E5908",
"+	c #D7CB03",
"@	c #C1B60D",
"                ",
"       .        ",
"      .+.       ",
"     .+@+.      ",
"    .+@ @+.     ",
"   .+@@@@@+.    ",
"   .+@@@@@+.    ",
"    .+@@@+.     ",
"     .+++.      ",
"      .+.       ",
"      .+.       ",
"      .+...     ",
"      .+++.     ",
"      .+..      ",
"      .+++.     ",
"      .....     "};
