/* XPM */
static char * save_generic_xpm24[] = {
"24 24 10 1",
" 	c None",
".	c #000000",
"+	c #613D1A",
"@	c #523417",
"#	c #FFFFFF",
"$	c #FFFDC1",
"%	c #616161",
"&	c #505050",
"*	c #747474",
"=	c #858585",
"                        ",
"                        ",
"  ..................    ",
"  .+@.#$#$#$#$#$.+@.    ",
"  .@+.$#$#$#$#$#.@+.    ",
"  .+@.#$#$#$#$#$.+@.    ",
"  .@+.$#$#$#$#$#.@+.    ",
"  .+@.#$#$#$#$#$.+@.    ",
"  .@+.$#$#$#$#$#.@+.    ",
"  .+@.#$#$#$#$#$.+@.    ",
"  .@+.$#$#$#$#$#.@+.    ",
"  .+@............+@.    ",
"  .@+@+@+@+@+@+@+@+.    ",
"  .+@+@+@+@+@+@+@+@.    ",
"  .@+@+@+@+@+@+@+@+.    ",
"  .+@.............@.    ",
"  .@+.%&.*=*=*=*=.+.    ",
"  .+@.&%.=*=*=*=*.@.    ",
"  .@+.%&.*=*=*=*=.+.    ",
"  .+@.&%.=*=*=*=*.@.    ",
"   .+.%&.*=*=*=*=.+.    ",
"    ................    ",
"                        ",
"                        "};
